<svg version="1.2" xmlns="http://www.w3.org/2000/svg" viewBox="0 0 1158 272" width="1158" height="272">
	<style>
		.s0 { opacity: 1;fill: #0654dd } 
		.s1 { opacity: 1;fill: #031f68 } 
		.s2 { opacity: 1;fill: #05a59d } 
		.s3 { opacity: 1;fill: #069791 } 
		.s4 { opacity: 1;fill: #0b6ee4 } 
		.s5 { opacity: 1;fill: #0645b4 } 
		.s6 { opacity: 1;fill: #0651c7 } 
		.s7 { opacity: 1;fill: #042c87 } 
		.s8 { opacity: 1;fill: #04379b } 
		.s9 { opacity: 1;fill: #c3d4dc } 
		.s10 { opacity: 1;fill: #4e99c9 } 
		.s11 { opacity: .99;fill: #959599 } 
		.s12 { opacity: 1;fill: #666f79 } 
		.s13 { opacity: 1;fill: #89aec9 } 
		.s14 { opacity: .48;fill: #d8dbdc } 
		.s15 { opacity: 1;fill: #040c24 } 
		.s16 { opacity: 1;fill: #0b132b } 
		.s17 { opacity: 1;fill: #f1f7f5 } 
		.s18 { opacity: 1;fill: #1e2e55 } 
	</style>
	<g id="Background">
		<path id="Path 0" class="s0" d="m132.4 14c0.33 0.55-2.78 4.82-6.9 9.5-4.62 5.23-7.98 8.25-8.75 7.86-0.69-0.35-0.58 0.01 0.25 0.81 0.82 0.81 2.74 1.99 4.25 2.65 1.51 0.65 2.86 0.81 3 0.35 0.14-0.46 2.72-2.42 5.75-4.35 3.03-1.93 7.43-4.36 9.8-5.41l4.3-1.91c-8.6-8.14-11.37-10.5-11.7-10.5-0.33 0-0.33 0.45 0 1zm-78.67 38.67c-0.6 1.55-2.07 1.87-9.47 2.11-4.82 0.15-10.3 0.6-12.18 1-3.32 0.7-3.44 0.89-3.75 5.97-0.18 2.89-0.11 5.25 0.17 5.25 0.27 0 1.74-0.5 3.25-1.11 1.51-0.62 4.32-1.09 6.25-1.05 1.92 0.04 3.95-0.38 4.5-0.94 0.55-0.55 2.63-0.87 4.61-0.7 2 0.16 4.13-0.26 4.75-0.95 0.63-0.69 0.94-1.36 0.69-1.5-0.25-0.14 0.11-2.22 0.8-4.63 0.69-2.41 1.21-4.58 1.17-4.82-0.04-0.25-0.39 0.37-0.79 1.37zm2.77 46.3c2.23 0.59 2.49 0.85 1 1.03-1.1 0.13-2.34 0.18-2.75 0.12-0.41-0.07-1.43 0.55-2.25 1.38-0.83 0.83-1.5 2.63-1.5 4 0 1.38-0.34 2.69-0.75 2.92-0.41 0.24-0.64 1.59-0.5 3 0.2 2.12-0.47 2.94-3.75 4.58-2.2 1.1-4 2.45-4 3 0 0.55-1.91 1.74-4.25 2.65-2.34 0.9-5.83 1.81-7.75 2.02-1.93 0.21-4.06 0.59-4.75 0.85-0.69 0.27-1.25 0.14-1.26-0.27 0-0.41-2.81-0.64-6.25-0.5-3.43 0.14-7.82 0.76-9.74 1.38-1.93 0.62-4.06 1.52-4.75 2-0.87 0.61-1.36 0.18-1.61-1.38-0.2-1.24-0.43 3.49-0.5 10.5-0.08 7.01 0.22 12.75 0.66 12.75 0.44 0 1.23-0.38 1.75-0.85 0.52-0.47 2.97-1.4 5.45-2.06 2.47-0.67 4.84-1.18 5.25-1.15 0.41 0.03 2.66-0.63 5-1.48 2.72-0.98 4.34-1.16 4.5-0.5 0.16 0.66 1.62 0.48 4-0.48 2.06-0.84 4.42-1.53 5.25-1.52 0.82 0 5.22-1.9 9.77-4.23 4.54-2.33 8.24-4.68 8.21-5.23-0.03-0.55 1.2-1.56 2.73-2.24 1.53-0.68 3.69-2.04 4.79-3.03 1.1-0.98 5.37-4.14 9.5-7.02 4.12-2.88 8.06-5.23 8.75-5.23 0.69 0.01 1.25-0.65 1.25-1.48 0-0.83 1.46-2.36 3.25-3.42 1.79-1.05 4.6-3.15 6.25-4.65 1.65-1.51 4.24-3.12 5.75-3.59 1.51-0.46 2.77-1.24 2.8-1.73 0.03-0.5-9.42-0.9-21.25-0.91-12.23-0.01-20.02 0.32-18.3 0.77z"/>
		<path id="Path 1" class="s1" d="m172 180l11.5 0.6c-15.45 0.32-20.34 0.92-21.53 1.65-1.64 1.01-2.17 1-2.75-0.08-0.54-0.98-1.48-0.55-3.72 1.7-1.65 1.66-3.34 2.82-3.75 2.57-0.41-0.24-0.75 0.24-0.75 1.06 0 0.82-2.14 3.11-4.75 5.07-2.61 1.96-4.97 4.48-5.25 5.59-0.31 1.25-2.03 2.56-4.5 3.43-2.2 0.77-4.31 1.76-4.7 2.2-0.38 0.44-1.62 1.34-2.75 2-1.13 0.67-2.95 1.21-4.05 1.21-1.56 0-2 0.67-2 3 0 2.3-0.52 3.11-2.25 3.49-1.24 0.26-3.49 0.49-5 0.5-2.69 0.01-2.74 0.12-2.21 4.76 0.42 3.73 0.15 5.13-1.25 6.53-1.53 1.53-3.62 1.78-14.54 1.75-12.37-0.03-12.77 0.04-13.42 2.22-0.37 1.24-3.97 5.51-8 9.5-4.03 3.99-7.33 7.03-7.33 6.75 0-0.28-1.91 1.73-4.25 4.45-3.56 4.15-4.33 4.65-4.75 3.06-0.47-1.76-0.75-1.71-4.23 0.8-2.06 1.48-3.41 3.04-3 3.47 0.4 0.43-0.28 0.76-1.52 0.75-1.24-0.02-2.59 0.5-3 1.16-0.54 0.85 0.18 1.06 2.58 0.75 1.83-0.24 3.52-0.1 3.75 0.31 0.23 0.41 25.28 0.75 55.67 0.74l55.25-0.01c7.78-3.63 11.95-6.84 14.4-9.57 2.41-2.7 5.06-6.48 5.87-8.41 0.81-1.93 1.76-7.22 2.1-11.76l0.63-8.25c-42.8 0.07-45.17-0.1-46.72-1.71-0.95-0.98-1.76-2.68-1.79-3.78-0.03-1.1 0.75-2.77 1.73-3.71 1.55-1.49 4.63-1.75 23.78-2l22-0.29 0.42-32.5-27.42 0.4z"/>
		<path id="Path 2" class="s2" d="m272.5 73.82c-3.38 1.68-7.36 4.66-9.11 6.83-1.72 2.12-3.8 5.2-4.63 6.85-0.84 1.65-1.8 4.46-2.14 6.25l-0.62 3.25c-10.46 0.05-16.65 0.46-20.5 0.94l-7 0.88c-19.38 20.17-26.24 26.51-27.75 27.1-1.51 0.6-5 1.08-7.75 1.08-4.67 0-5 0.17-5 2.5 0 1.38 0.22 3.18 0.5 4 0.35 1.05 1.91 1.5 5.25 1.49 2.61 0 6.55-0.5 8.75-1.12 3.19-0.89 6.72-3.91 17.5-15.01l13.5-13.89 22.5 0.03c1.5 5.81 3.3 9.64 4.97 12.25 1.69 2.65 5.13 6.09 7.78 7.78 2.61 1.66 6.32 3.46 8.25 3.99 1.93 0.53 6.2 0.97 9.5 0.96 4.15 0 7.54-0.71 11-2.31 2.75-1.27 6.69-3.96 8.75-5.99 2.06-2.02 4.72-5.59 5.91-7.93 1.37-2.7 2.32-6.8 2.6-11.25 0.34-5.39-0.03-8.26-1.6-12.5-1.14-3.08-3.83-7.37-6.1-9.75-2.23-2.34-5.97-5.23-8.31-6.42-2.98-1.53-6.64-2.3-12.25-2.59-7.31-0.37-8.52-0.15-14 2.58zm-19.5 92.68c0 1.3-4.22 1.5-32 1.5h-32v9c56.71 0 64.1 0.28 64.42 1.25 0.23 0.69 0.46-2.01 0.5-6 0.04-3.99-0.14-7.25-0.42-7.25-0.28 0-0.5 0.68-0.5 1.5zm-64 51v4.5c14.15 0 15.37 0.3 18.25 2.67 1.79 1.47 6.18 5.5 9.75 8.96 3.57 3.46 8.19 6.98 10.25 7.83 2.69 1.11 7.27 1.54 16.25 1.54h12.5c0.78 6.59 2.47 10.96 4.25 13.96 1.79 3 5.16 6.94 7.5 8.75 2.34 1.81 4.7 3.06 5.25 2.79 0.55-0.27 1.11-0.07 1.25 0.44 0.14 0.52 2.27 1.39 4.75 1.92 2.48 0.54 6.52 0.84 9 0.67 2.48-0.17 6.64-1.26 9.25-2.42 2.61-1.16 4.75-2.56 4.75-3.11 0-0.55 0.45-0.77 1-0.5 0.55 0.27 2.35-1.07 4-3 1.65-1.93 3.97-5.41 5.17-7.75 1.65-3.25 2.18-6.13 2.24-12.25 0.06-6.78-0.33-8.76-2.55-13-1.44-2.75-4.58-6.71-6.99-8.8-2.4-2.09-4.84-4.12-5.41-4.5-0.57-0.39-1.7-0.87-2.5-1.07-0.8-0.21-3.26-0.81-5.46-1.34-2.2-0.53-6.25-0.76-9-0.5-2.75 0.26-6.91 1.42-9.25 2.59-2.34 1.17-6.41 4.26-9.04 6.87-2.64 2.61-5.34 6.44-6 8.5l-1.21 3.75h-27c-17.73-17.06-21.58-20.03-24.5-20.86-2.2-0.62-6.81-1.13-10.25-1.13l-6.25-0.01zm463.25 0.11c-1.24 0.21-2.23 0.95-2.21 1.64 0.04 0.89-0.41 0.82-1.54-0.25-1.42-1.34-1.58-1.31-1.54 0.25 0.02 0.96 0.83 1.98 1.79 2.25 0.96 0.28 11.42 0.32 23.25 0.09 11.83-0.23 26.79-0.46 33.25-0.51 9.74-0.07 11.75-0.34 11.75-1.58 0-1.24-1.69-1.48-9.75-1.36-7.31 0.11-8.75 0.32-5.75 0.86 3.17 0.57 2.24 0.74-4.5 0.84-5.29 0.08-7.93-0.2-7-0.75 1.06-0.62 0.19-1.01-3-1.33-2.48-0.25-10.8-0.48-18.5-0.5-7.7-0.03-15.01 0.13-16.25 0.35zm76 0c-1.45 0.25-2.25 1.1-2.25 2.39 0 1.99 0.58 2 215.25 1.75 214.5-0.25 215.25-0.26 215.25-2.25 0-1.99-0.76-2-146.5-2.27-80.58-0.15-147.51-0.04-148.75 0.25-1.24 0.29-2.02 0.97-1.75 1.52 0.3 0.59-1.33 1-4 1-2.67 0-4.3-0.41-4-1 0.27-0.55 0.05-1-0.5-1-0.55 0-1 0.45-1 1 0 0.55-2.14 0.99-4.75 0.98-3.44-0.01-4.33-0.28-3.25-0.98 1.19-0.77 0.98-0.98-1-1-1.38-0.01-3.51-0.25-4.75-0.51-1.55-0.34-2.25-0.02-2.25 1.01q0 1.5-3 1.5c-1.65 0-3.15-0.56-3.33-1.25-0.26-0.98-10.96-1.28-48.75-1.39-26.63-0.08-49.43 0.04-50.67 0.25z"/>
		<path id="Path 3" class="s3" d="m271.25 143.4c-4.81 2.39-8.41 5.03-10.69 7.85-1.89 2.34-4.15 6.28-5.02 8.75-0.98 2.78-1.57 7.74-1.55 13 0.02 6.77 0.5 9.51 2.37 13.5 1.28 2.75 4.32 6.83 6.74 9.07 2.42 2.23 6.99 5.05 10.15 6.25 4 1.52 7.95 2.18 13 2.17 5.69-0.01 8.43-0.56 12.75-2.59 3.02-1.42 7.24-4 9.36-5.74 2.3-1.89 5.12-5.77 7-9.64 2.68-5.53 3.14-7.59 3.12-14-0.01-6.06-0.53-8.59-2.67-13.02-1.46-3.03-4.82-7.5-7.48-9.95-2.66-2.45-6.85-5.32-9.33-6.39-2.68-1.16-7.73-2.12-12.5-2.4-7.61-0.43-8.36-0.27-15.25 3.14zm375.25 74.27c-0.46 0.36-0.76 1.49-0.67 2.5 0.1 1.05 0.92 1.8 1.92 1.75 0.96-0.04 1.19-0.27 0.5-0.5-0.69-0.23-1.27-1.21-1.29-2.17-0.04-1.56 0.12-1.59 1.54-0.25 1.13 1.07 1.58 1.14 1.54 0.25-0.02-0.69 0.97-1.41 2.21-1.61 1.29-0.21 0.72-0.43-1.33-0.5-1.97-0.08-3.96 0.16-4.42 0.53zm41 0.06c2.96 0.29 3.61 0.63 2.5 1.31-0.98 0.61 1.42 0.89 7 0.8 6.74-0.1 7.67-0.27 4.5-0.84-3-0.54-1.56-0.75 5.75-0.86 8.06-0.12 9.75 0.12 9.75 1.36 0 1.26-2.6 1.54-16.25 1.78-15.89 0.27-15.78 0.28 4.5 0.5 20.16 0.21 20.75 0.16 20.75-1.78 0-1.3 0.79-2.13 2.25-2.36 1.24-0.2-8.33-0.35-21.25-0.34-12.92 0.02-21.7 0.21-19.5 0.43zm137.25-0.07c1.79 0.19 3.25 0.79 3.25 1.34 0 0.55 1.35 1 3 1q3 0 3-1.5c0-1.19-1.29-1.47-6.25-1.34-3.44 0.09-4.79 0.31-3 0.5zm15.25 0.06c2.64 0.31 3.13 0.63 2 1.33-1.05 0.64-0.07 0.92 3.25 0.93 2.61 0.01 4.75-0.43 4.75-0.98 0-0.55 0.45-1 1-1 0.55 0 0.77 0.45 0.5 1-0.3 0.59 1.33 1 4 1 2.67 0 4.3-0.41 4-1-0.27-0.55 0.06-1.19 0.75-1.42 0.69-0.23-4.38-0.39-11.25-0.34-6.88 0.04-10.92 0.26-9 0.48zm-8 4.03c5.23 0.18 14 0.18 19.5 0 5.5-0.18 1.23-0.33-9.5-0.33-10.73 0-15.23 0.15-10 0.33z"/>
		<path id="Path 4" class="s4" d="m81.5 1.41c-3.85 0.75-9.47 2.35-12.5 3.56-3.03 1.21-8.42 4.13-12 6.49-3.58 2.36-9.12 7.16-12.32 10.66-3.43 3.76-7.44 9.67-9.75 14.38-2.15 4.4-4.52 10.7-5.25 14l-1.34 6c5.94-1.16 11.37-1.61 15.91-1.75l8.25-0.25c7.15-11.63 11.2-16.71 13.61-18.8 2.42-2.09 6.64-4.87 9.39-6.17 2.75-1.31 7.92-2.92 11.5-3.59 5.11-0.96 7.89-0.96 13 0 3.58 0.67 7.06 1.3 7.75 1.39 0.69 0.09 1.25 0.51 1.25 0.92 0 0.41 0.67 0.52 1.5 0.25 0.83-0.27 2.33 0.29 3.33 1.25 1.01 0.96 2.36 1.86 3 2 0.65 0.14 4.21-3.24 7.93-7.5 3.72-4.26 7.43-8.62 8.25-9.69 0.93-1.21 1.02-1.68 0.24-1.25-0.69 0.38-1.42 0.13-1.63-0.56-0.2-0.69-3.69-2.93-7.75-4.99-4.05-2.05-10.07-4.43-13.37-5.29-3.3-0.85-9.6-1.74-14-1.98-4.58-0.26-10.99 0.14-15 0.92zm-59 97.99c-2.2 0.69-5.35 1.96-7 2.81-1.65 0.85-4.69 3.4-6.75 5.67-2.06 2.27-4.27 5.13-4.9 6.37-0.64 1.24-1.52 3.6-1.97 5.25-0.44 1.65-0.48 4.22-0.09 5.71 0.43 1.64 1.1 2.38 1.71 1.88 0.55-0.46 2.58-1.34 4.5-1.96 1.93-0.62 6.31-1.24 9.74-1.38 3.44-0.14 6.25 0.09 6.25 0.5 0.01 0.41 0.57 0.54 1.26 0.27 0.69-0.26 2.82-0.64 4.75-0.85 1.92-0.21 5.41-1.12 7.75-2.02 2.34-0.91 4.25-2.1 4.25-2.65 0-0.55 1.8-1.9 4-3 3.28-1.64 3.95-2.46 3.75-4.58-0.14-1.41 0.09-2.76 0.5-3 0.41-0.23 0.75-1.55 0.75-2.92 0-1.38 0.67-3.18 1.5-4 0.83-0.83 1.84-1.45 2.25-1.38 0.41 0.06 1.65 0.01 2.75-0.12 1.47-0.17 1.21-0.44-1-1-1.65-0.42-9.08-0.79-16.5-0.81-8.26-0.04-15.05 0.44-17.5 1.21z"/>
		<path id="Path 5" class="s5" d="m151.5 45.24c-1.65 0.56-6.15 2.1-10 3.42-4.09 1.4-7.83 2.12-9 1.72-1.62-0.55-1.79-0.41-0.88 0.72 0.62 0.77 1.68 4.55 2.37 8.4 0.68 3.85 1.42 7.56 1.63 8.25 0.27 0.9 2.4 1.13 7.63 0.83 3.99-0.23 8.94-0.68 11-1 3.53-0.55 3.78-0.82 4.32-4.83 0.32-2.34-0.06-7.51-0.83-11.5-0.78-3.99-1.82-7.2-2.33-7.14-0.5 0.05-2.26 0.56-3.91 1.13zm-100.5 33.26c0 2.37-0.25 2.48-4.75 2.11-2.61-0.22-6.42-0.73-8.47-1.13-2.71-0.54-4.39-0.3-6.25 0.89-2.43 1.56-2.55 1.54-2.94-0.62-0.23-1.24-0.34 2.36-0.25 7.99l0.16 10.25 23 0.01c0.46-17.05 0.35-22 0.05-22-0.3 0-0.55 1.12-0.55 2.5zm102.5 20.12c-2.2 0.21-5.91 0.61-8.25 0.88-2.92 0.34-4.16 0.93-3.96 1.89 0.16 0.76-0.29 2.33-1 3.5-1.02 1.67-1.03 2.11-0.04 2.11 0.69 0-0.66 0.9-3 2-2.34 1.1-4.25 2.45-4.25 3 0 0.55-0.45 0.78-1 0.5-0.55-0.28-1-0.05-1 0.5 0 0.55-2.59 1.27-5.75 1.6-3.16 0.34-6.99 1.24-8.5 2-2.21 1.13-2.75 2.09-2.75 4.9 0 2.77-0.82 4.29-3.91 7.25-3.26 3.12-4.35 3.62-6.5 3-1.43-0.41-2.59-0.53-2.59-0.25 0 0.28 1.91 1.38 4.25 2.45 2.34 1.07 6.16 3.99 8.5 6.5 2.34 2.5 4.25 5 4.25 5.55 0 0.55 0.56 1.34 1.24 1.75 0.9 0.54 0.98 0.34 0.31-0.75-0.79-1.26-0.67-1.3 0.76-0.25 1.38 1.02 1.78 0.98 2.19-0.25 0.28-0.82 1.51-1.51 2.75-1.53 1.24-0.01 3.6-1.04 5.25-2.28 1.65-1.24 4.35-2.89 6-3.65 1.65-0.77 3.3-1.43 3.67-1.47 0.36-0.04 1.04-0.48 1.5-0.98 0.48-0.53 0.3-0.63-0.42-0.25-0.81 0.43-1.47-0.31-1.86-2.09-0.4-1.81-0.15-3 0.75-3.48 0.75-0.41 0.91-0.74 0.36-0.75-0.55 0-0.1-0.63 1-1.4 1.31-0.91 6.3-1.59 14.5-1.98 8.72-0.41 14.16-1.19 18-2.58 3.19-1.15 6.41-3.15 7.68-4.77 1.19-1.54 2.09-3.8 2-5.04-0.1-1.24-0.52-2.25-0.93-2.25-0.41 0-0.53-0.45-0.25-1 0.28-0.55-1.41-2.66-3.75-4.69-2.34-2.03-6.05-4.49-8.25-5.46-2.2-0.98-6.03-1.96-8.5-2.19-2.47-0.23-6.3-0.25-8.5-0.04zm-98.58 52.6c-1.88 0.49-7.13 1.99-11.67 3.34-4.54 1.34-9.04 3.28-10 4.31-0.96 1.03-3.44 2.49-5.51 3.25-2.41 0.88-3.76 2.01-3.75 3.13 0 1.09-1.5 2.41-3.99 3.5-2.21 0.96-4.01 2.09-4 2.5 0 0.41-2.02 1.65-4.5 2.75-2.48 1.1-5.4 2-6.5 2-1.23 0-2.01 0.67-2.02 1.75-0.01 1.5-0.15 1.53-0.98 0.25-0.65-1.01-0.97 3-0.98 12.25-0.01 8.18 0.38 13.95 0.98 14.25 0.55 0.28 1 0.16 0.99-0.25 0-0.41 2.81-1.35 6.25-2.07 3.44-0.73 8.96-2.26 12.26-3.39 3.3-1.14 9.26-3.58 13.25-5.43 3.99-1.85 7.25-3.81 7.25-4.36 0-0.55 2.03-2.01 4.52-3.25 2.48-1.24 4.51-2.81 4.5-3.5-0.01-0.69 3.35-2.82 7.48-4.75 4.13-1.93 7.5-3.95 7.5-4.5 0-0.55 0.67-1 1.5-1 0.83 0 1.72-0.68 2-1.5 0.28-0.82 0.16-1.5-0.25-1.5-0.41 0-0.95-1.47-1.19-3.25-0.25-1.79-0.47-6.02-0.5-9.4-0.04-3.38-0.28-5.86-0.56-5.5-0.28 0.36-1.85 0.77-3.5 0.92-1.65 0.14-3.49-0.12-4.08-0.59-0.61-0.47-2.61-0.46-4.5 0.04z"/>
		<path id="Path 6" class="s6" d="m139.5 25.29c-1.1 0.65-4.93 2.94-8.5 5.1-3.57 2.15-6.61 4.3-6.75 4.76-0.14 0.47-1.26 0.33-2.5-0.31-1.65-0.85-1.25-0.06 1.5 3 2.06 2.29 4.76 5.95 6 8.14 1.24 2.19 2.93 4.24 3.75 4.55 0.82 0.3 5.1-0.65 9.5-2.13 4.4-1.48 9.01-3.07 10.25-3.54 1.42-0.54 2.11-1.51 1.88-2.61-0.21-0.96-1.15-3.33-2.09-5.25-0.95-1.92-3.14-5.64-4.88-8.25-1.74-2.61-3.84-4.72-4.66-4.69-0.82 0.03-2.4 0.59-3.5 1.23zm-88.33 37.21c-0.1 0.55-1.73 0.84-3.63 0.64-1.89-0.2-4.09 0.15-4.87 0.77-0.79 0.63-2.72 1.05-4.3 0.94-1.58-0.11-4.56 0.32-6.62 0.97-3.56 1.12-3.75 1.4-3.76 5.43-0.01 2.34 0.22 5.71 0.5 7.5l0.51 3.25c4.77-2.9 6.42-3.13 9-2.56 1.92 0.42 5.64 0.95 8.25 1.17l4.75 0.39c0.89-8.14 0.97-12.53 0.75-15-0.22-2.47-0.48-4.05-0.58-3.5zm44.83 36.5c0 0.55-1.24 1.38-2.75 1.84-1.51 0.47-4.1 2.08-5.75 3.59-1.65 1.5-4.46 3.6-6.25 4.65-1.79 1.06-3.25 2.59-3.25 3.42 0 0.83-0.56 1.49-1.25 1.48-0.69 0-4.63 2.35-8.75 5.23-4.13 2.88-8.4 6.04-9.5 7.02-1.1 0.99-3.26 2.35-4.79 3.03-1.53 0.68-2.76 1.69-2.73 2.24 0.03 0.55-3.67 2.9-8.21 5.23-4.55 2.33-8.94 4.23-9.77 4.23-0.83-0.01-3.19 0.68-5.25 1.52-2.45 0.99-3.84 1.15-4 0.46-0.18-0.75-1.06-0.75-3 0-1.51 0.58-3.99 1.28-5.5 1.55-1.51 0.27-4.32 0.98-6.25 1.57-1.93 0.59-4.6 1.57-5.95 2.18-2.44 1.09-2.45 1.14-2.23 14.68 0.11 7.47 0.65 14.26 1.18 15.08 0.83 1.28 0.97 1.25 0.98-0.25 0.01-1.08 0.79-1.75 2.02-1.75 1.1 0 4.02-0.9 6.5-2 2.48-1.1 4.5-2.34 4.5-2.75-0.01-0.41 1.79-1.54 4-2.5 2.5-1.1 3.99-2.4 3.98-3.5-0.02-1.16 1.38-2.26 4.14-3.25 2.29-0.82 4.31-1.95 4.48-2.5 0.18-0.55 2.03-1.74 4.11-2.64 2.09-0.91 7.95-2.82 13.04-4.25 5.7-1.61 9.44-2.23 9.75-1.61 0.27 0.55 1.96 0.89 3.75 0.75 1.79-0.14 3.81-0.81 4.5-1.5 0.69-0.69 1.03-1.7 0.75-2.25-0.28-0.55 0.77-2.46 2.33-4.25 1.56-1.79 3.13-4.04 3.5-5 0.37-0.96 1.12-1.53 1.67-1.25 0.55 0.28 1.56-0.4 2.25-1.5 0.69-1.1 1.6-1.66 2.03-1.25 0.43 0.41 0.75 0.3 0.73-0.25-0.03-0.55 2.77-1.66 6.22-2.47 3.45-0.81 6.72-1.34 7.27-1.18 0.55 0.16 3.25 0.51 6 0.78 2.75 0.27 5.12 0.58 5.26 0.68 0.14 0.11 2.05-1.5 4.25-3.56 3.18-2.99 3.99-4.46 3.99-7.25 0-2.81 0.54-3.77 2.75-4.9 1.51-0.76 5.34-1.66 8.5-2 3.16-0.33 5.75-1.05 5.75-1.6 0-0.55 0.45-0.78 1-0.5 0.55 0.28 1 0.05 1-0.5 0-0.55 1.91-1.9 4.25-3 2.34-1.1 3.69-2 3-2-0.94 0-0.9-0.55 0.19-2.25 0.79-1.24 1.24-2.81 1-3.5q-0.43-1.25 3.81-1.75c2.34-0.27 6.05-0.65 8.25-0.83 2.2-0.18-9.84-0.41-26.75-0.5-19.95-0.11-30.75 0.18-30.75 0.83z"/>
		<path id="Path 7" class="s7" d="m158.36 89c0 5.22 0.17 7.25 0.38 4.5 0.2-2.75 0.2-7.03 0-9.5-0.21-2.47-0.38-0.22-0.38 5zm9.76 49.75c0.06 0.41 0.06 1.31 0 2-0.07 0.74-0.83 1-1.87 0.65-0.96-0.34-2.88-0.05-4.25 0.62-2.45 1.21-2.46 1.26-0.5 2.58 1.1 0.74 2.34 1.13 2.75 0.87 0.41-0.26 0.75 0.43 0.75 1.53 0 1.1-1.13 2.9-2.5 4q-2.5 2-2.5 5c0 2.03-0.4 2.82-1.25 2.45-0.73-0.33-1.88 0.73-2.75 2.54-0.83 1.7-2.18 3.08-3 3.06-1.33-0.02-1.33 0.09 0 0.95 1.12 0.72 0.54 0.97-2.25 0.98-2.06 0.01-3.98 0.47-4.25 1.02-0.33 0.65 6.83 1 20.5 1h21l-0.1-30c-15.42 0-19.85 0.34-19.78 0.75zm-27.09 29.25c-0.57 1.1-1.93 2-3.03 2-1.1 0-2.23 0.68-2.5 1.5-0.28 0.82-1.18 1.28-2 1-0.89-0.3-1.5 0.11-1.5 1 0 1.2-0.84 1.37-4.25 0.83-2.34-0.37-4.81-1.27-5.5-2-0.69-0.73-2.15-1.33-3.25-1.33-1.14 0-2.75 1.25-3.75 2.92-0.96 1.61-3.66 4.08-6 5.5-2.34 1.42-4.25 3.26-4.25 4.08 0 0.82 1.37 7.01 3.04 13.75 1.66 6.74 3.31 12.93 3.65 13.75 0.35 0.82 0.55 2.06 0.47 2.75-0.09 0.72 0.58 1.06 1.59 0.81 0.96-0.25 3.44-0.7 5.5-1 3.38-0.5 3.75-0.86 3.75-3.56 0-2.33 0.44-3 2-3 1.1 0 3.01-0.52 4.25-1.15 1.24-0.63 2.47-1.53 2.75-2 0.27-0.47 2.3-1.49 4.5-2.26 2.47-0.87 4.19-2.18 4.5-3.43 0.27-1.11 2.64-3.63 5.25-5.59 2.61-1.96 4.75-4.25 4.75-5.07 0-0.82 0.34-1.3 0.75-1.06 0.41 0.25 2.1-0.91 3.75-2.57 2.24-2.25 3.18-2.68 3.72-1.7 0.58 1.08 1.11 1.09 2.75 0.08 1.2-0.74 6-1.31 11.78-1.41 7.14-0.11 4.53-0.4-9.75-1.07-13.82-0.65-20.16-1.33-21.75-2.34-1.24-0.79-2.26-2.44-2.28-3.68-0.02-1.24 0.89-3.15 2.03-4.25 1.14-1.1 2.05-2.34 2.03-2.75-0.02-0.41-0.47-0.75-1-0.75-0.54 0-1.44 0.9-2 2zm-71.62 39.14c-0.23 0.47 0.04 1.08 0.59 1.36 0.55 0.28 0.99 1.06 0.97 1.75-0.02 0.76-0.51 0.58-1.25-0.46-0.67-0.94-1.76-1.73-2.43-1.75-0.67-0.02-1.68 0.64-2.25 1.46-0.57 0.82-1.49 1.28-2.04 1-0.55-0.28-2.91 0.53-5.25 1.8-2.34 1.26-5.49 3.06-7 4-1.51 0.93-2.76 1.36-2.78 0.95-0.02-0.41-0.41-0.07-0.87 0.75-0.46 0.82-3.59 2.96-6.97 4.75-3.37 1.79-6.47 3.18-6.88 3.09-0.41-0.09-2.1 0.21-3.75 0.67-1.65 0.46-5.48 2.07-8.5 3.57-3.03 1.51-5.73 2.35-6 1.87-0.28-0.48-2.98 0.31-6 1.75-3.03 1.45-6.06 2.55-6.75 2.46q-1.24-0.14-0.67 2.09c0.32 1.24 1.63 4.5 2.9 7.25 1.28 2.75 3.83 6.31 5.67 7.91 1.84 1.6 5.6 3.94 8.35 5.19 3.85 1.76 6.96 2.32 13.5 2.41 4.67 0.07 11.76 0.1 15.75 0.06 3.99-0.04 7.06-0.41 6.83-0.82-0.23-0.41-1.92-0.55-3.75-0.31-2.4 0.31-3.12 0.1-2.58-0.75 0.41-0.66 1.76-1.18 3-1.16 1.24 0.01 1.92-0.32 1.52-0.75-0.41-0.43 0.94-1.99 3-3.47 3.48-2.51 3.76-2.56 4.23-0.8 0.42 1.59 1.19 1.09 4.75-3.06 2.34-2.72 4.25-4.73 4.25-4.45 0 0.28 3.08-2.54 6.84-6.25 3.77-3.71 7.37-7.76 8-9 0.64-1.24 1.16-2.47 1.16-2.75 0-0.28-2.03-0.5-4.5-0.5-3.55 0-4.82-0.48-6.02-2.25-1.38-2.04-1.33-2.94 0.5-9.5 1.91-6.85 1.92-7.29 0.27-7.93-0.96-0.37-2.58-0.76-3.59-0.86-1.02-0.11-2.03 0.2-2.25 0.68z"/>
		<path id="Path 8" class="s8" d="m157.97 64.75c0.02 1.83-0.67 2.36-3.72 2.86-2.06 0.34-7.24 0.68-11.5 0.75l-7.75 0.14c-0.01 13.17 0.27 19.7 0.61 23l0.62 6 21.27 0.31c1.23-26.59 1.33-34.53 1.02-34.81-0.32-0.27-0.56 0.51-0.55 1.75zm25.53 49.75c0.28 0.83-0.59 2.96-1.92 4.75-1.64 2.21-3.97 3.72-7.25 4.7-2.66 0.8-6.18 1.78-7.83 2.18-1.68 0.4 2.15 0.65 8.67 0.55 6.41-0.1 11.95-0.4 12.31-0.68 0.36-0.28-0.06-3.09-0.92-6.25-0.86-3.16-2.01-5.97-2.56-6.25-0.55-0.28-0.78 0.17-0.5 1zm-44.21 19.5c0.18 2.99-0.23 3.72-2.79 5-1.65 0.83-4.46 2.52-6.25 3.75-1.79 1.24-4.15 2.25-5.25 2.25-1.1 0-2.22 0.68-2.5 1.5-0.41 1.22-0.78 1.27-2.01 0.25-1.32-1.09-1.45-0.74-0.98 2.75 0.3 2.2 0.79 4.9 1.1 6 0.3 1.1 0.07 4.36-0.53 7.25-0.59 2.89-1.04 5.59-0.99 6 0.04 0.41-0.52 1.08-1.25 1.48q-1.35 0.74 0.91 0.75c1.24 0.01 2.81 0.62 3.5 1.35 0.69 0.73 3.16 1.63 5.5 2 3.41 0.54 4.25 0.37 4.25-0.83 0-0.89 0.61-1.3 1.5-1 0.82 0.28 1.72-0.18 2-1 0.28-0.82 1.29-1.48 2.25-1.45 0.96 0.02 2.52-0.99 3.46-2.25 1.45-1.96 1.85-2.08 2.7-0.8 0.81 1.2 1.25 1.25 2.25 0.25 0.68-0.69 2.84-1.26 4.79-1.27 2.66-0.01 3.17-0.25 2.05-0.98-1.33-0.86-1.33-0.97 0-0.95 0.82 0.02 2.18-1.36 3-3.06 0.87-1.81 2.02-2.87 2.75-2.54 0.85 0.37 1.25-0.42 1.25-2.45q0-3 2.5-5c1.38-1.1 2.5-2.9 2.5-4 0-1.1-0.34-1.79-0.75-1.53-0.41 0.26-1.65-0.13-2.75-0.87-1.96-1.32-1.95-1.37 0.5-2.58 1.38-0.67 3.29-0.96 4.25-0.62 1.08 0.37 1.94 0.03 2.25-0.9 0.28-0.82 0.16-1.69-0.25-1.92-0.41-0.23-6.9-0.57-14.41-0.75-7.51-0.18-13.49-0.55-13.3-0.83 0.2-0.28-0.06-1.85-0.56-3.5l-0.91-3zm-70.27 36.75c-0.01 0.69-0.69 1.25-1.51 1.25-0.83 0-1.5 0.45-1.5 1 0 0.55-3.38 2.57-7.5 4.5-4.13 1.93-7.5 4.06-7.49 4.75 0.01 0.69-2.01 2.26-4.5 3.5-2.48 1.24-4.51 2.7-4.51 3.25 0 0.55-3.27 2.51-7.25 4.36-3.99 1.85-9.95 4.29-13.25 5.43-3.3 1.13-8.82 2.66-12.26 3.39-3.44 0.72-6.26 1.66-6.25 2.07 0 0.41-0.44 0.53-0.99 0.25-0.65-0.32-1 5.17-1 15.5 0 11.05 0.35 16.08 1.12 16.25 0.62 0.14 3.66-0.99 6.75-2.52 3.1-1.52 5.85-2.35 6.13-1.84 0.27 0.51 2.97-0.3 6-1.81 3.02-1.5 6.85-3.11 8.5-3.57 1.65-0.46 3.33-0.76 3.75-0.67 0.41 0.09 3.51-1.3 6.88-3.09 3.37-1.79 6.51-3.93 6.97-4.75 0.46-0.82 0.85-1.16 0.87-0.75 0.01 0.41 1.26-0.02 2.78-0.95 1.51-0.94 4.66-2.74 7-4 2.33-1.27 4.7-2.08 5.25-1.8 0.55 0.28 1.56-0.2 2.25-1.04 0.68-0.85 1.81-1.53 2.5-1.5 0.68 0.02 1.48 0.83 1.76 1.79 0.28 0.96 0.84 1.42 1.25 1.02 0.4-0.4 0.06-1.43-0.76-2.29-0.83-0.86-1.28-1.58-1-1.6 0.27-0.02 1.4-0.19 2.5-0.39 1.1-0.2 2.57 0.17 3.27 0.82 0.7 0.66 1.47 0.97 1.72 0.69 0.24-0.28 0.67-1.85 0.94-3.5 0.28-1.65 1.6-7.05 2.94-12l2.43-9c-8.76-7.97-11.75-9.99-12.29-9.64-0.55 0.35-0.69 0.19-0.32-0.36 0.37-0.55 0.26-1.68-0.24-2.5q-0.92-1.49-0.94-0.25z"/>
		<path id="Path 9" class="s9" d="m27.37 72c0 5.78 0.17 8.03 0.37 5 0.2-3.03 0.2-7.75 0-10.5-0.2-2.75-0.37-0.28-0.37 5.5zm-0.03 18.5c0.01 4.4 0.18 5.97 0.39 3.5 0.21-2.47 0.21-6.08 0-8-0.22-1.92-0.39 0.1-0.39 4.5zm213.16 15.24c3.3 0.2 8.25 0.2 11 0 2.75-0.21 0.05-0.37-6-0.37-6.05 0.01-8.3 0.17-5 0.37zm-86 22.01c6.05 0.17 16.18 0.17 22.5 0 6.32-0.18 1.37-0.32-11-0.32-12.38 0-17.55 0.14-11.5 0.32zm64 50c6.6 0.17 16.95 0.17 23 0 6.05-0.18 0.65-0.32-12-0.32-12.65 0-17.6 0.14-11 0.32zm-64 35c6.05 0.17 16.18 0.17 22.5 0 6.32-0.18 1.37-0.32-11-0.32-12.38 0-17.55 0.14-11.5 0.32zm620 4c70.4 0.14 185.15 0.14 255 0 69.85-0.14 12.25-0.26-128-0.26-140.25 0-197.4 0.12-127 0.26zm-584 5.99c2.75 0.2 6.8 0.2 9-0.01 2.2-0.21-0.05-0.38-5-0.38-4.95 0.01-6.75 0.18-4 0.39z"/>
		<path id="Path 10" class="s10" d="m52.4 84c0 7.97 0.15 11.35 0.34 7.5 0.19-3.85 0.19-10.38 0-14.5-0.19-4.13-0.34-0.97-0.34 7zm849.1 138l-255 0.51c423.85 0.41 509.66 0.15 509.96-0.51 0.26-0.55 0.37-0.89 0.25-0.75-0.11 0.13-114.96 0.47-255.21 0.75z"/>
		<path id="Path 11" class="s11" d="m147 178.73c1.93 0.21 5.3 0.21 7.5 0 2.2-0.22 0.63-0.39-3.5-0.39-4.13 0-5.93 0.17-4 0.39zm16.5-0.06c2.75 0.17 9.57 0.42 15.16 0.57 5.58 0.14 9.97-0.08 9.75-0.49-0.23-0.41-7.05-0.67-15.16-0.57-8.11 0.11-12.5 0.33-9.75 0.49z"/>
		<path id="Path 12" class="s12" d="m0.35 209.5c0 4.95 0.17 7.2 0.38 5 0.21-2.2 0.21-6.25 0.01-9-0.21-2.75-0.38-0.95-0.39 4z"/>
		<path id="Path 13" class="s13" d="m159.42 79.5c0 10.45 0.15 14.5 0.33 9 0.18-5.5 0.18-14.05-0.01-19-0.18-4.95-0.32-0.45-0.32 10zm-25.09 10c0 3.85 0.18 5.2 0.4 3 0.21-2.2 0.21-5.35-0.01-7-0.22-1.65-0.4 0.15-0.39 4zm-133.88 73c0 21.45 0.14 30 0.3 19 0.16-11 0.16-28.55 0-39-0.16-10.45-0.3-1.45-0.3 20zm187.95-9c0.01 8.8 0.16 12.18 0.34 7.5 0.19-4.68 0.19-11.88 0-16-0.18-4.13-0.34-0.3-0.34 8.5zm-0.01 39.5c0 7.43 0.16 10.35 0.35 6.5 0.19-3.85 0.19-9.93 0-13.5-0.19-3.57-0.35-0.43-0.35 7zm-188.03 34c0 5.22 0.17 7.25 0.38 4.5 0.2-2.75 0.2-7.03 0-9.5-0.21-2.47-0.38-0.22-0.38 5z"/>
		<path id="Path 14" class="s14" d="m166 222.74c3.57 0.19 9.65 0.19 13.5 0 3.85-0.19 0.93-0.35-6.5-0.35-7.43 0-10.57 0.16-7 0.35z"/>
		<path id="Path 15" fill-rule="evenodd" class="s15" d="m929.25 101.03c1.24 0.01 3.05 0.8 4.03 1.75 0.98 0.94 1.77 2.96 1.75 4.47-0.02 1.51-0.74 3.42-1.6 4.25-0.87 0.83-2.78 1.49-4.25 1.47-1.47-0.01-3.48-0.8-4.46-1.75-0.98-0.94-1.77-2.73-1.75-3.97 0.02-1.24 0.93-3.15 2.03-4.25 1.1-1.1 3.01-1.99 4.25-1.97zm132.65 0c1.43 0.01 3.4 0.8 4.38 1.75 0.98 0.94 1.77 2.96 1.75 4.47-0.02 1.71-0.88 3.32-2.28 4.26-1.24 0.83-3.15 1.49-4.25 1.47-1.1-0.02-2.8-0.81-3.78-1.76-0.98-0.94-1.85-2.81-1.93-4.14-0.08-1.33 0.67-3.25 1.68-4.25 1-1.01 3-1.82 4.43-1.8zm-682.9 0.99c4.05 0.02 8.01 0.7 10.5 1.81 2.2 0.99 5.01 3.23 6.25 4.98 1.24 1.76 2.25 4.09 2.25 5.19 0 1.1-0.79 2.18-1.75 2.41-0.96 0.22-2.99 0.67-4.5 1-1.56 0.33-2.75 0.16-2.75-0.41 0-0.55-1.13-2.13-2.5-3.5-2-2-3.5-2.5-7.5-2.5-3.67 0-5.53 0.53-7 2-1.1 1.1-2 3.12-2 4.5 0 1.37 0.85 3.29 1.9 4.25 1.04 0.96 5.21 2.55 9.25 3.53 4.04 0.98 9.15 2.79 11.35 4.02 2.29 1.27 4.75 3.72 5.75 5.72 0.96 1.91 1.76 5.51 1.78 7.98 0.02 3.06-0.7 5.59-2.25 7.91-1.25 1.87-3.55 4.35-5.1 5.5-2.29 1.69-4.57 2.15-12 2.4-8 0.26-9.75 0.01-13.62-2-2.44-1.27-5.24-3.44-6.21-4.81-0.97-1.38-2.03-3.63-2.37-5-0.55-2.3-0.24-2.58 3.97-3.5 4.51-0.98 4.61-0.95 6.57 2.25 1.3 2.13 3.27 3.63 5.73 4.37 2.06 0.62 5.32 0.86 7.25 0.54 1.92-0.33 4.31-1.39 5.31-2.38 0.99-0.98 1.81-3.13 1.82-4.78 0.01-1.65-0.8-3.78-1.81-4.74-1-0.95-5.08-2.64-9.07-3.75-3.99-1.1-9.05-2.91-11.25-4.01-2.22-1.11-4.67-3.33-5.5-5-0.83-1.65-1.49-5.36-1.47-8.25 0.02-3.31 0.71-6.36 1.88-8.25 1.02-1.65 3.82-4.01 6.22-5.25 3.23-1.66 6.06-2.24 10.87-2.23zm383-0.02h10v21l3-2.5c2.47-2.06 4.07-2.5 9-2.5 5.18 0 6.39 0.37 8.87 2.75 1.58 1.51 3.37 4.55 3.99 6.75 0.62 2.2 1.13 10.19 1.14 31.5h-10l0.03-13.25c0.04-11.79-0.19-13.55-2-16-1.59-2.16-2.84-2.75-5.78-2.73q-3.75 0.02-6.03 2.25c-2.15 2.11-2.27 2.98-2.22 29.73l-10-0.5zm-113.5 0.95l13.74 0.55 8.99 25.5c4.94 14.03 9.16 26.51 9.37 27.75 0.37 2.1 0.04 2.25-10.1 2.28l-4.11-12.53-22.39-0.5-3.7 12.5-5.65 0.25c-3.11 0.14-5.54-0.13-5.4-0.6 0.14-0.46 4.52-13.08 9.75-28.02zm-0.29 32.55c10.3 0.4 13.39 0.4 13.51 0.26 0.12-0.14-1.11-4.53-2.74-9.76-1.62-5.22-3.09-10.14-3.26-10.92-0.17-0.77-1.93 3.5-3.91 9.5zm96.14-27.69c0.47 0.17 0.81 2.76 0.75 5.75-0.07 3.82 0.27 5.4 1.15 5.29 0.69-0.09 2.71-0.09 4.5 0 3.1 0.15 3.25 0.34 3.25 8.15h-9v10c0 5.5 0.22 10.68 0.5 11.5q0.5 1.5 4.5 1.5c3.97 0 4 0.03 4.25 4.08 0.14 2.24 0.06 4.27-0.17 4.5-0.23 0.23-2.81 0.42-5.75 0.42-2.93 0-6.68-0.67-8.33-1.5-1.87-0.93-3.39-2.72-4.02-4.75-0.56-1.78-1.01-8.31-0.98-25.75h-3.5c-3.42 0-3.5-0.09-3.5-4 0-3.8 0.17-4.02 3.5-4.5 3.47-0.49 3.5-0.54 3.5-10.5l4.25-0.25c2.34-0.14 4.63-0.12 5.1 0.06zm159.38-0.47c3.24 0.16 3.26 0.19 3.27 10.66l3.75 0.16c2.06 0.09 4.31 0.09 5 0 0.84-0.1 1.25 1.33 1.25 8.84h-10v9.5c0 5.23 0.45 10.4 1 11.5 0.75 1.5 2 2 5 2 3.95 0 4 0.05 4.25 3.99 0.15 2.46-0.23 4.18-1 4.5-0.69 0.28-3.28 0.51-5.75 0.51-2.48 0-5.51-0.5-6.75-1.11-1.24-0.62-3.03-2.08-3.98-3.25-1.43-1.77-1.73-4.32-1.77-27.64h-3.5c-3.42 0-3.5-0.09-3.5-4 0-3.79 0.17-4.01 3.25-4.25 3.17-0.24 3.25-0.37 3.45-5.23 0.11-2.85 0.74-5.27 1.48-5.66 0.71-0.38 2.75-0.61 4.55-0.52zm126.27-0.34h10l-0.03 10.5 10.03 1.5v8h-10l-0.02 10.25c-0.01 6.96 0.39 10.66 1.25 11.52 0.7 0.7 2.73 1.26 4.52 1.25 2.96-0.01 3.29 0.3 3.75 3.48 0.27 1.93 0.16 4.02-0.25 4.64-0.48 0.73-2.89 0.97-6.75 0.66-4.77-0.37-6.62-1.03-12-5.99l-0.5-25.81h-3c-2.83 0-3-0.22-3-4 0-3.77 0.17-4 6-4zm-604.75 11.04c3.16-0.02 6.99 0.6 8.5 1.37 1.51 0.77 3.72 2.46 4.9 3.75 1.18 1.29 2.87 4.48 3.75 7.09 0.88 2.62 1.6 6.1 1.6 10.75h-14c-13.33 0-14 0.1-14 2 0 1.1 1.24 3.33 2.75 4.95 1.51 1.62 3.87 3.02 5.25 3.11 1.37 0.09 3.22 0.12 4.11 0.06 0.89-0.07 2.69-1.16 4-2.44 2.18-2.13 2.76-2.24 11.02-0.18l-2.31 3.4c-1.28 1.87-3.9 4.24-5.82 5.26q-3.5 1.85-9.75 1.85c-3.44 0-7.49-0.64-9-1.42-1.51-0.77-3.96-2.68-5.44-4.25-1.48-1.56-3.16-4.07-3.75-5.59-0.58-1.51-1.06-5.45-1.06-8.75 0-3.3 0.7-7.68 1.55-9.75 0.86-2.06 2.34-4.85 3.29-6.2 0.95-1.34 3.29-3.01 5.19-3.71 1.91-0.69 6.06-1.27 9.22-1.3zm-7.92 14.21q0.33 1.25 8 1.5c7.51 0.25 7.66 0.21 7.08-2-0.32-1.23-1.56-3.05-2.75-4.04-1.19-0.98-3.42-1.77-4.96-1.75-1.61 0.03-3.83 1.1-5.25 2.54-1.35 1.38-2.3 3.07-2.12 3.75zm50.92-14.22c3.46-0.02 7.2 0.67 9.4 1.72 2 0.97 4.43 2.88 5.39 4.25 0.96 1.38 1.91 3.39 2.1 4.48 0.29 1.59-0.46 2.17-3.9 3-3.91 0.94-4.39 0.83-5.75-1.23-0.82-1.23-2.73-2.71-4.24-3.28q-2.75-1.03-5.75-0.05c-1.93 0.63-3.63 2.25-4.75 4.53-0.96 1.96-1.75 5.35-1.75 7.55 0 2.2 0.67 5.35 1.5 7 0.82 1.65 2.62 3.45 4 4 1.37 0.55 3.51 1.02 4.75 1.05 1.26 0.02 3.68-1.4 5.51-3.25 3.17-3.21 3.36-3.26 7.25-2.05 2.19 0.69 3.99 1.59 3.98 2 0 0.42-0.9 2.22-2 4-1.09 1.79-3.79 4.15-5.99 5.25q-4 2-10 2c-3.3 0-7.24-0.61-8.75-1.36-1.51-0.75-3.99-2.78-5.5-4.5-1.51-1.73-3.2-4.82-3.75-6.89-0.54-2.06-0.99-5.55-0.99-7.75 0-2.2 0.45-5.68 0.99-7.75 0.55-2.06 2.05-4.98 3.34-6.5 1.29-1.51 3.88-3.52 5.75-4.47 2.03-1.03 5.73-1.74 9.16-1.75zm33 0.13c1.59-0.14 1.74 1.09 1.71 13.59-0.04 12.17 0.18 14.04 1.91 16.25 1.46 1.87 2.86 2.49 5.56 2.45 2.35-0.03 4.39-0.82 5.84-2.27 2.05-2.05 2.25-3.28 2.73-29.18h10v40h-5c-4.67 0-5-0.16-5-5l-3.75 2.54c-2.74 1.84-5.04 2.52-8.5 2.5-2.61-0.02-5.99-0.65-7.5-1.4-1.51-0.75-3.54-3-4.5-5-1.43-2.96-1.75-6.4-1.75-33.64l3.25-0.34c1.79-0.18 4.04-0.41 5-0.5zm36.75-0.16h4.5c4.33 0 4.5 0.12 4.5 3 0 1.65 0.19 3 0.42 3 0.23 0 1.77-1.35 3.42-3 2.36-2.35 3.88-3 11.16-3v5c0 4.94-0.04 5-2.75 4.39-1.67-0.37-4.03 0.03-6 1-1.79 0.89-3.7 2.74-4.25 4.11-0.55 1.38-1 7.9-1 26.5h-10zm47.5 0.21c5.56 0.24 7.7 0.82 10.44 2.8 1.89 1.37 4.24 4.29 5.22 6.49 0.99 2.2 1.8 6.14 1.84 13.5h-27v2.5c0 1.38 1.12 3.63 2.5 5 1.37 1.38 3.51 2.56 4.75 2.62 1.24 0.06 3.15 0.02 4.25-0.09 1.1-0.11 3.12-1.22 4.5-2.46 2.27-2.06 2.89-2.17 11.13-0.07l-2.31 3.4c-1.28 1.87-3.9 4.24-5.82 5.26-2.39 1.26-5.56 1.85-10 1.83-4.85-0.01-7.52-0.59-10.5-2.26-2.62-1.46-4.8-3.79-6.31-6.73-1.96-3.82-2.26-5.72-2-12.57 0.27-6.98 0.69-8.6 3.07-11.84 1.52-2.07 4.22-4.64 6-5.72 2.58-1.57 4.67-1.91 10.24-1.66zm-7.3 11.74c-0.66 1.13-1.2 2.5-1.2 3.05 0 0.59 3.33 1 8 1 7.76 0 7.98-0.06 7.25-2.16-0.41-1.18-1.88-3-3.25-4.03-1.38-1.03-3.18-1.83-4-1.78-0.83 0.06-2.42 0.5-3.55 0.98-1.12 0.49-2.58 1.81-3.25 2.94zm107.8-11.45l10 0.5 0.25 13.97c0.21 11.86 0.52 14.24 2.03 15.75 1.05 1.04 3.27 1.78 5.34 1.78 2.62 0 4.18-0.71 5.97-2.75 2.28-2.6 2.41-3.43 2.41-28.75h10v40h-4.5c-4.13 0-4.5-0.2-4.5-2.5 0-1.37-0.23-2.5-0.5-2.5-0.28 0-1.85 1.13-3.5 2.5-2.51 2.1-4.02 2.5-9.25 2.46-5.72-0.03-6.51-0.31-9.28-3.25-1.67-1.76-3.36-4.78-3.76-6.71-0.41-1.92-0.73-9.57-0.72-17zm139-0.22c4.8 0.18 7.35 0.83 9.75 2.49 1.78 1.23 4.15 4.03 5.25 6.23 1.2 2.4 2 6 2 14h-13.5c-13.33 0-13.5 0.03-13.54 2.25-0.02 1.24 1.11 3.49 2.5 5 2.01 2.19 3.42 2.75 6.79 2.73 2.94-0.01 4.86-0.65 6.25-2.06 1.61-1.65 2.81-1.93 6.25-1.48 2.4 0.32 4.26 1.11 4.28 1.81 0.02 0.69-0.81 2.38-1.84 3.75-1.03 1.38-3.52 3.29-5.53 4.25-2.3 1.1-5.99 1.75-9.91 1.74-4.61-0.01-7.28-0.61-10.18-2.25-2.49-1.42-4.78-3.88-6.27-6.74-1.8-3.44-2.34-6.08-2.32-11.25 0.01-4.61 0.62-7.93 1.92-10.5 1.05-2.06 2.96-4.73 4.25-5.94 1.29-1.2 3.47-2.66 4.85-3.23 1.37-0.58 5.42-0.94 9-0.8zm-8.96 14.18c-0.04 1.27 1.39 1.54 7.96 1.54h8c-1.57-4.69-3.09-6.43-4.5-7-1.38-0.55-3.42-1-4.55-1-1.12 0-3.13 1.11-4.45 2.46-1.33 1.35-2.43 3.15-2.46 4zm55.57-14.46c3.57 0 6.31 0.62 8.14 1.85 1.65 1.1 3.45 3.8 4.51 6.75 1.36 3.79 1.76 8.03 1.74 32.4l-9.83-0.5-0.1-13c-0.09-10.91-0.4-13.4-1.94-15.5-1.32-1.79-2.93-2.57-5.73-2.77-2.97-0.22-4.45 0.26-6.18 2-2.15 2.15-2.27 3.04-2.22 29.77h-10v-40h4.95c4.74 0 4.93 0.11 4.5 2.5-0.25 1.38-0.18 2.5 0.16 2.5 0.33 0 1.96-1.35 3.61-3 2.59-2.59 3.73-3 8.39-3zm54.02 0.39c0.75 0.34 2.94 0.61 8.37 0.61l-0.01 39.5-9.49-0.05-0.12-20.34c-0.09-16.84 0.12-20.23 1.25-19.72zm35.62-0.35c3.16-0.02 6.98 0.58 8.5 1.33 1.51 0.75 4.02 2.89 5.57 4.75 1.55 1.86 2.67 4.04 2.5 4.85-0.18 0.8-2.12 1.86-4.32 2.36-3.45 0.78-4.21 0.63-5.5-1.1-0.83-1.09-2.52-2.49-3.75-3.11-1.24-0.61-3.6-0.89-5.25-0.62-1.71 0.29-3.88 1.69-5.04 3.25-1.55 2.1-2.02 4.25-2 9 0.03 5.59 0.35 6.57 3.04 9.25q3 3 6 3 3 0 6-3c2.51-2.51 3.53-2.9 6.25-2.38 1.78 0.34 3.82 0.9 4.53 1.25 0.97 0.48 0.71 1.49-1.05 4.13-1.28 1.93-3.88 4.53-5.78 5.78-2.73 1.8-4.82 2.27-9.95 2.24-4.82-0.04-7.53-0.63-10.47-2.28-2.23-1.26-4.94-3.98-6.22-6.24-1.24-2.2-2.54-5.8-2.9-8-0.37-2.25-0.08-6.4 0.66-9.5 0.72-3.02 2.48-7.02 3.9-8.89 1.43-1.87 4.15-3.99 6.06-4.71 1.91-0.73 6.05-1.33 9.22-1.36zm40.75 0.01c4.79-0.03 7.35 0.49 9.75 1.96 1.78 1.1 3.92 3.34 4.75 4.99 1.14 2.28 1.5 6.73 1.5 34h-4.5c-4.25 0-4.5-0.15-4.45-5.5l-2.28 2.26c-1.25 1.25-4.07 2.68-6.27 3.18-2.2 0.5-5.56 0.61-7.45 0.24-1.9-0.37-4.71-1.91-6.25-3.43-2.25-2.2-2.8-3.64-2.8-7.25 0-2.47 0.56-5.65 1.25-7.06 0.68-1.4 3.05-3.42 5.25-4.48 2.8-1.35 6.17-1.93 11.25-1.94 7.06-0.02 7.25-0.08 7.25-2.52 0-1.37-0.9-3.4-2-4.5q-2-2-6-2c-3.1 0-4.4 0.56-5.75 2.44-1.62 2.25-2.07 2.36-5.75 1.4-2.2-0.58-4.12-1.22-4.25-1.44-0.14-0.22 0.42-1.75 1.25-3.4 0.82-1.65 3.18-3.88 5.25-4.95 2.56-1.34 5.8-1.97 10.25-2zm-6.59 26.09c-1.05 1.04-1.43 2.42-1.04 3.75 0.37 1.24 1.77 2.37 3.38 2.72 1.51 0.34 3.76 0.34 5 0 1.23-0.33 2.94-1.62 3.79-2.86 0.84-1.23 1.41-3.15 1.25-4.25-0.26-1.78-0.86-1.94-5.5-1.5-2.88 0.28-5.96 1.24-6.88 2.14zm99.16-25.9c5.93 0.22 7.68 0.71 10.75 3.01 2.02 1.52 4.63 4.67 5.79 7 1.74 3.5 2.06 5.62 1.75 11.91-0.32 6.76-0.72 8.11-3.43 11.5-1.69 2.12-4.62 4.63-6.5 5.59-2.18 1.11-5.71 1.75-9.68 1.75-3.44 0-7.49-0.63-9-1.4-1.52-0.77-3.74-2.46-4.95-3.75-1.2-1.29-2.89-4.03-3.75-6.1-0.85-2.06-1.54-6.33-1.53-9.5 0.01-3.41 0.77-7.37 1.86-9.75 1.01-2.2 2.69-4.73 3.73-5.62 1.04-0.89 3.24-2.36 4.89-3.26 2.15-1.18 5-1.57 10.07-1.38zm-8.32 13.27c-0.69 1.37-1.27 4.86-1.29 7.74-0.02 4.26 0.45 5.78 2.5 8 1.76 1.92 3.53 2.76 5.79 2.76 1.78 0.01 4.26-0.67 5.5-1.5 1.23-0.83 2.74-3.19 3.35-5.26 0.6-2.06 0.81-5.32 0.45-7.25-0.36-1.92-1.42-4.51-2.35-5.76-1.01-1.34-3.13-2.45-5.2-2.73-1.93-0.26-4.4-0.02-5.5 0.52-1.1 0.53-2.57 2.1-3.25 3.48zm55.78-13.51c2.73 0 6.13 0.57 7.54 1.25 1.42 0.69 3.34 2.38 4.25 3.75 1.36 2.03 1.74 5.64 2.34 35.5l-10.16 0.5 0.03-14.25c0.03-12.36-0.2-14.48-1.75-16.03-1.07-1.08-3.33-1.82-5.66-1.85-2.67-0.05-4.53 0.59-6 2.06-1.93 1.94-2.15 3.36-2.62 30.07h-10v-40h5c4.72 0 5 0.15 4.94 5.21l3.57-3.1c2.95-2.58 4.41-3.11 8.52-3.11zm-85.03 1h10v40l-10.01-0.5z"/>
		<path id="Path 16" fill-rule="evenodd" class="s0" d="m378.5 187.08c2.75-0.04 6.69 0.38 8.75 0.93 2.06 0.54 5.35 2.45 7.3 4.24 1.95 1.79 3.97 4.49 4.5 6 0.88 2.54 0.71 2.83-2.3 3.77-1.79 0.56-3.7 1.02-4.25 1.03-0.55 0.01-2.35-1.27-4-2.85-1.65-1.57-4.35-3.2-6-3.62-1.66-0.42-4.56-0.29-6.5 0.29-2.09 0.63-4 2.08-4.75 3.59-0.8 1.62-0.94 3.35-0.4 4.79 0.47 1.24 2.16 2.77 3.75 3.4 1.6 0.63 5.83 1.88 9.4 2.77 3.57 0.9 7.96 2.52 9.75 3.61 1.79 1.08 4.04 3.19 5 4.68 1.15 1.77 1.75 4.68 1.75 8.42 0 4.23-0.54 6.45-2.09 8.54-1.15 1.56-3.63 3.84-5.5 5.08-1.94 1.29-5.78 2.53-8.91 2.88-3.02 0.34-7.41 0.34-9.75-0.01-2.34-0.34-5.6-1.3-7.25-2.12-1.65-0.82-4.08-2.96-5.41-4.75-1.32-1.79-2.56-4.34-2.75-5.67-0.3-2.14 0.23-2.59 4.41-3.75 2.61-0.73 4.54-0.99 4.29-0.58-0.25 0.41 0.88 2.21 2.5 4 1.94 2.13 4.26 3.46 6.71 3.86 2.06 0.34 5.1 0.35 6.75 0.03 1.65-0.32 3.95-1.61 5.11-2.86 1.68-1.81 1.94-2.9 1.31-5.28-0.44-1.65-1.84-3.52-3.11-4.16-1.27-0.64-6.36-2.39-11.31-3.88-6.32-1.91-9.82-3.58-11.75-5.59-1.51-1.58-2.52-3.32-2.25-3.87 0.27-0.55 0.16-1-0.25-1-0.41 0-0.86-2.47-1-5.5-0.18-3.95 0.19-5.92 1.32-7 0.87-0.82 1.2-1.49 0.75-1.47-0.45 0.01 0.3-1.1 1.68-2.48 1.37-1.37 2.84-2.28 3.25-2.02 0.41 0.26 0.66 0.06 0.55-0.45-0.11-0.5 1.13-1.37 2.75-1.92 1.62-0.55 5.2-1.04 7.95-1.08zm113.5 4.92h10.2l0.3 11.43 9.5 0.07v8.5h-5c-4.95 0-5 0.03-5.13 3.25-0.07 1.79-0.08 6.4-0.03 10.25 0.09 6.02 0.42 7.25 2.38 8.81q2.28 1.8 5.03 1.25c2.68-0.54 2.75-0.44 2.75 3.94 0 4.28-0.16 4.53-3.25 5.12-1.79 0.34-4.6 0.26-6.25-0.17-1.65-0.43-3.34-0.7-3.75-0.61-0.41 0.09-0.75-0.29-0.75-0.84 0-0.55-0.55-0.89-1.22-0.75-0.67 0.14-2.04-1.32-3.06-3.25-1.52-2.88-1.74-4.83-1.24-11 0.34-4.13 0.36-9.41 0.06-11.75-0.52-4.09-0.67-4.25-4.04-4.25-3.49 0-3.5-0.01-3.25-4.25 0.24-4.02 0.43-4.26 3.5-4.5 3.24-0.25 3.25-0.26 3.25-5.75zm-82.59 11.5c2.97 0 5.22 0.34 4.99 0.75-0.22 0.41-0.06 0.74 0.35 0.74 0.41-0.01 1.82 3.25 3.13 7.25 1.31 3.99 2.51 7.94 2.67 8.76 0.17 0.82 0.33 1.61 0.37 1.75 0.05 0.14 0.23 0.59 0.41 1 0.19 0.41 0.86 1.99 1.5 3.5 0.65 1.51 1.17 3.2 1.17 3.75 0 0.55 0.45 1 1 1 0.55 0 1.01-0.56 1.01-1.25 0.01-0.69 1.64-6.43 3.61-12.75 1.98-6.32 4.11-12.08 4.74-12.78 0.7-0.79 2.94-1.17 10.45-0.72l-7.41 20.5c-4.07 11.27-8.18 22.52-9.12 25-0.94 2.47-2.63 5.44-3.75 6.6-1.12 1.15-3.04 2.61-4.28 3.25-1.24 0.63-4.5 1.15-7.25 1.15-4.67 0-5-0.17-5-2.5 0-1.38 0.45-3.4 1-4.5 0.64-1.29 1.98-1.99 3.75-1.97 1.51 0.02 3.47-0.77 4.35-1.75 0.88-0.98 1.89-2.57 2.25-3.53 0.38-1.03-1.15-6.35-3.75-13-2.42-6.19-6.02-15.41-8-20.5-1.98-5.09-3.6-9.36-3.6-9.5 0-0.14 2.44-0.25 5.41-0.25zm56.77-0.33c6.98 0.3 7.97 0.61 10.74 3.33 1.68 1.65 3.17 3.75 3.32 4.66 0.18 1.15-0.89 1.99-3.49 2.75-3.42 0.99-3.97 0.87-6.25-1.41-1.37-1.38-3.62-2.5-5-2.5-1.37 0-3.4 0.45-4.5 1-1.2 0.6-2 2-2 3.5 0 1.39 0.78 2.88 1.75 3.35 0.96 0.47 4.68 1.45 8.25 2.18 5.06 1.03 7.22 2.06 9.75 4.65 2.41 2.47 3.25 4.22 3.25 6.82 0 1.92-0.68 4.85-1.5 6.5-0.82 1.65-2.96 3.78-4.75 4.73-2.25 1.2-5.56 1.73-10.75 1.73-5.19 0-8.5-0.53-10.75-1.73-1.79-0.95-3.93-3.08-4.75-4.73-0.82-1.65-1.5-3.45-1.5-4 0-0.55 1.69-1.27 3.75-1.6 3.14-0.5 4.2-0.17 6.5 2 1.88 1.78 3.85 2.6 6.25 2.6 1.93 0 4.4-0.45 5.5-1 1.1-0.55 2.02-2.01 2.04-3.25 0.03-1.52-0.86-2.65-2.75-3.48-1.53-0.67-5.04-1.72-7.79-2.32-2.75-0.6-6.23-1.85-7.73-2.77-1.5-0.93-3.19-2.69-3.75-3.93-0.56-1.24-1.01-3.49-1.01-5 0.01-1.51 0.58-3.86 1.25-5.21 0.68-1.35 2.81-3.52 4.74-4.83 3.08-2.09 4.42-2.34 11.18-2.04zm69.82-0.17c5.19-0.04 7.2 0.41 10 2.27 1.92 1.27 4.47 4.1 5.66 6.27 1.19 2.18 1.98 4.52 1.75 5.21-0.22 0.69 0.02 1.5 0.55 1.81 0.52 0.31 0.97 2.11 1.04 7.44h-14c-11.78 0-14 0.24-14 1.5 0 0.82 0.45 2.62 1 4 0.55 1.37 2.46 3.23 4.25 4.12 1.99 1 4.31 1.38 6 1 1.51-0.34 3.76-1.58 5-2.75 1.82-1.72 2.92-1.99 5.75-1.4 1.92 0.39 3.84 0.9 4.25 1.12 0.41 0.23 0.04 1.65-0.83 3.16-0.88 1.51-2.68 3.54-4 4.5-1.33 0.96-4.78 2.27-7.67 2.91-2.89 0.63-6.83 0.87-8.75 0.53-1.92-0.35-5.08-1.66-7-2.92-1.92-1.26-4.52-4.31-5.76-6.78-1.68-3.34-2.25-6.21-2.25-11.24 0.01-4.26 0.62-7.95 1.65-10 0.91-1.79 2.82-4.42 4.25-5.86 1.44-1.43 3.51-3.11 4.61-3.72 1.1-0.61 4.92-1.14 8.5-1.17zm-6.79 11.94c-0.67 1.13-1.21 2.51-1.21 3.06 0 0.58 3.33 1 8 1 5.71 0 8.01-0.36 8.04-1.25 0.03-0.69-0.76-2.26-1.75-3.5-0.98-1.23-3.14-2.46-4.79-2.72-1.65-0.26-3.92-0.07-5.04 0.44-1.13 0.5-2.59 1.84-3.25 2.97zm54.04-11.9c3.98-0.03 5.33 0.48 8.36 3.21 3.24 2.92 3.69 3.07 4.5 1.5 0.49-0.96 2.24-2.43 3.89-3.25 1.65-0.82 5.02-1.5 7.5-1.5 2.48 0 5.51 0.46 6.75 1.02 1.24 0.56 3.15 2.48 4.25 4.25 1.75 2.83 2.03 5.24 2.5 35.73h-10l-0.25-14.58c-0.23-13.28-0.43-14.71-2.25-16.02-1.1-0.79-3.35-1.41-5-1.39-1.65 0.02-3.8 0.82-4.78 1.77-0.98 0.94-1.77 2.28-1.75 2.97 0.02 0.69-0.31 1.25-0.72 1.25-0.41 0-0.64 5.85-0.25 26l-4.95-0.25c-3.67-0.19-4.91-0.64-4.84-1.75 0.06-0.82 0.05-6.9-0.01-13.5-0.09-9.86-0.43-12.42-1.91-14.38-1.29-1.72-2.77-2.39-5.29-2.39-2.52 0-4 0.67-5.29 2.39-1.53 2.02-1.79 4.41-1.7 29.38l-10.01 0.5v-40h4c3.17 0 4.1 0.42 4.5 2 0.27 1.1 0.95 2 1.5 2 0.55 0 0.92-0.44 0.82-0.97-0.1-0.53 1.14-1.64 2.75-2.46 1.61-0.82 5.07-1.51 7.68-1.53z"/>
		<path id="Path 17" class="s16" d="m651.5 102.72c1.65 0.22 4.8 0.22 7 0.01 2.2-0.22 0.85-0.4-3-0.4-3.85-0.01-5.65 0.17-4 0.39z"/>
		<path id="Path 18" class="s9" d="m279 116.74c2.48 0.2 6.75 0.2 9.5 0 2.75-0.21 0.73-0.38-4.5-0.38-5.23 0-7.48 0.17-5 0.38zm406.39 14.26c0 7.43 0.16 10.35 0.35 6.5 0.19-3.85 0.19-9.93 0-13.5-0.19-3.57-0.35-0.42-0.35 7zm-182.04 5.5c0 4.95 0.17 7.2 0.38 5 0.21-2.2 0.21-6.25 0.01-9-0.21-2.75-0.38-0.95-0.39 4zm8.81 71.25l-0.16 4.25-8.5 0.65c6.84 0.28 8.71-0.14 9.05-0.9 0.3-0.69 0.37-2.82 0.16-4.75-0.37-3.3-0.4-3.25-0.55 0.75zm-20.82 13.25c0 4.13 0.17 5.93 0.39 4 0.21-1.93 0.21-5.3 0-7.5-0.22-2.2-0.39-0.62-0.39 3.5zm129.88 8.25l-0.22 14.75-9.5 0.64c7.75 0.29 9.69-0.1 10.02-0.89 0.29-0.69 0.39-7.55 0.22-15.25l-0.3-14zm-35.83 1.75c0 7.43 0.16 10.35 0.35 6.5 0.19-3.85 0.19-9.93 0-13.5-0.19-3.57-0.35-0.43-0.35 7z"/>
		<path id="Path 19" class="s17" d="m280.25 85.54c-1.79 0.8-3.7 2.36-4.25 3.46-0.55 1.1-1 2.67-1 3.5 0 0.89 0.92 1.5 2.25 1.5 1.24 0.01 2.81-0.89 3.5-2 0.95-1.52 2.16-1.94 5-1.75 3.5 0.23 3.77 0.48 4.05 3.75 0.28 3.2-0.34 4.12-7.25 10.75-4.47 4.29-7.55 8.07-7.55 9.25 0 1.88 0.67 2 11 2 10.33 0 11-0.12 11-2 0-1.75-0.71-2.01-5.75-2.12-3.16-0.06-6.09-0.06-6.5 0-0.41 0.07-0.74-0.22-0.72-0.63 0.01-0.41 2.71-3.56 6-7 4.97-5.2 5.97-6.84 5.97-9.75 0-1.93-0.45-4.4-1-5.5-0.55-1.1-2.57-2.68-4.5-3.5-1.93-0.83-4.29-1.48-5.25-1.46-0.96 0.02-3.21 0.7-5 1.5zm0.64 68.62c-2.41 1.56-6.34 3.11-8.72 3.45-3.31 0.46-4.45 1.11-4.86 2.75-0.29 1.18-0.24 5.74 0.11 10.14 0.49 6.27 1.22 8.94 3.36 12.34 1.67 2.66 5.04 5.81 8.72 8.15l6 3.81c11.74-7.87 14.5-10.53 15.91-13.3 1.5-2.96 2.12-6.47 2.39-13.5 0.27-7.17 0.04-9.68-0.97-10.23-0.73-0.41-2.68-0.76-4.33-0.77-1.65-0.02-5.3-1.31-8.11-2.86l-5.11-2.82zm0.59 73.09c-0.26 0.69-2.61 7.66-5.22 15.51l-4.76 14.25c5.35-0.46 6.14-1.16 6.97-3.79 1.01-3.22 1.12-3.27 7.03-3.26 5.95 0.01 6.01 0.04 7.25 3.52 1.05 2.96 1.72 3.52 4.25 3.52 2.4 0 2.89-0.35 2.44-1.75-0.31-0.96-2.59-7.6-5.07-14.75-2.47-7.15-4.69-13.34-4.93-13.75-0.24-0.41-2.03-0.75-3.97-0.75-1.93 0-3.73 0.56-3.99 1.25z"/>
		<path id="Path 20" class="s10" d="m561.42 223.5c0 11.55 0.15 16.05 0.33 10 0.17-6.05 0.17-15.5 0-21-0.18-5.5-0.33-0.55-0.33 11zm-59.05-1c0.01 6.05 0.17 8.3 0.37 5 0.2-3.3 0.2-8.25 0-11-0.21-2.75-0.37-0.05-0.37 6zm35.63 4.24c3.03 0.2 8.2 0.2 11.5 0 3.3-0.2 0.83-0.36-5.5-0.36-6.33 0-9.02 0.16-6 0.36z"/>
		<path id="Path 21" class="s11" d="m537.42 138.5c0 11.55 0.15 16.05 0.33 10 0.17-6.05 0.17-15.5 0-21-0.18-5.5-0.33-0.55-0.33 11zm158.96-9c0 6.6 0.17 9.07 0.36 5.5 0.2-3.57 0.19-8.97 0-12-0.2-3.03-0.36-0.1-0.36 6.5zm26.04 9c0 11.55 0.15 16.05 0.33 10 0.17-6.05 0.17-15.5 0-21-0.18-5.5-0.33-0.55-0.33 11zm212 0c0 11.55 0.15 16.05 0.33 10 0.17-6.05 0.17-15.5 0-21-0.18-5.5-0.33-0.55-0.33 11zm122 0c0 11.55 0.15 16.05 0.33 10 0.17-6.05 0.17-15.5 0-21-0.18-5.5-0.33-0.55-0.33 11zm-345.04-6c0 6.6 0.17 9.07 0.36 5.5 0.2-3.57 0.19-8.97 0-12-0.2-3.03-0.36-0.1-0.36 6.5zm23 6c0 6.6 0.17 9.07 0.36 5.5 0.2-3.57 0.19-8.97 0-12-0.2-3.03-0.36-0.1-0.36 6.5zm305.99-1.5c0 5.78 0.17 8.03 0.37 5 0.2-3.03 0.2-7.75 0-10.5-0.2-2.75-0.37-0.28-0.37 5.5zm116.03 7c0 8.53 0.16 11.9 0.34 7.5 0.19-4.4 0.19-11.38 0-15.5-0.18-4.13-0.34-0.53-0.34 8zm-732.4-2.26c3.58 0.19 9.65 0.19 13.5 0 3.85-0.19 0.93-0.35-6.5-0.35-7.42 0-10.57 0.16-7 0.35zm160.5 0c3.85 0.19 9.7 0.19 13 0 3.3-0.2 0.15-0.35-7-0.35-7.15 0-9.85 0.16-6 0.35zm239 0c3.85 0.19 9.7 0.19 13 0 3.3-0.2 0.15-0.35-7-0.35-7.15 0-9.85 0.16-6 0.35z"/>
		<path id="Path 22" class="s12" d="m761.43 124c0 12.38 0.14 17.32 0.32 11 0.17-6.32 0.17-16.45 0-22.5-0.18-6.05-0.32-0.88-0.32 11.5zm-269.03 8.5c0 8.25 0.16 11.4 0.34 7 0.19-4.4 0.19-11.15 0-15-0.19-3.85-0.34-0.25-0.34 8zm25.99-2c0 7.15 0.16 9.85 0.35 6 0.19-3.85 0.19-9.7 0-13-0.2-3.3-0.35-0.15-0.35 7zm378.99 8c0 6.6 0.17 9.07 0.36 5.5 0.2-3.57 0.19-8.97 0-12-0.2-3.03-0.36-0.1-0.36 6.5zm-47.98 5.5c0 8.53 0.16 11.9 0.34 7.5 0.19-4.4 0.19-11.38 0-15.5-0.18-4.13-0.34-0.53-0.34 8zm169 0.5c0 8.25 0.16 11.4 0.34 7 0.19-4.4 0.19-11.15 0-15-0.19-3.85-0.34-0.25-0.34 8zm-231.01 1.5c0 7.43 0.16 10.35 0.35 6.5 0.19-3.85 0.19-9.93 0-13.5-0.19-3.57-0.35-0.43-0.35 7zm88 0c0 7.43 0.16 10.35 0.35 6.5 0.19-3.85 0.19-9.93 0-13.5-0.19-3.57-0.35-0.43-0.35 7zm255 0.5c0 7.15 0.16 9.85 0.35 6 0.19-3.85 0.19-9.7 0-13-0.2-3.3-0.35-0.15-0.35 7z"/>
		<path id="Path 23" class="s13" d="m596.39 231c0 7.43 0.16 10.35 0.35 6.5 0.19-3.85 0.19-9.93 0-13.5-0.19-3.57-0.35-0.43-0.35 7zm13.79-0.25c-0.1 7.29 0.16 13.43 0.57 13.66 0.41 0.22 0.63-3.72 0.48-8.75-0.14-5.04-0.4-11.19-0.57-13.66-0.16-2.47-0.38 1.46-0.48 8.75z"/>
		<path id="Path 24" class="s18" d="m907.37 136.5c0 5.5 0.17 7.53 0.37 4.5 0.2-3.03 0.2-7.53-0.01-10-0.2-2.47-0.37 0-0.36 5.5z"/>
		<path id="Path 25" class="s14" d="m1067.34 141c0 4.13 0.17 5.93 0.39 4 0.21-1.93 0.21-5.3 0-7.5-0.22-2.2-0.39-0.63-0.39 3.5z"/>
		<path id="Path 26" class="s2" d="m285.25 235.58c-0.69 0.23-1.02 1.09-0.75 1.92 0.27 0.82 0.05 1.5-0.5 1.5-0.55 0-0.66 0.5-0.25 1.11 0.41 0.62 0.08 1.46-0.75 1.89-0.83 0.43-1.16 1.27-0.75 1.89 0.41 0.61 1.88 1.11 3.25 1.11 1.38 0 2.73-0.68 3-1.5 0.27-0.83 0.49-1.84 0.47-2.25-0.02-0.41-0.47 0.04-1 1-0.53 0.96-1.42 1.75-1.97 1.75-0.55 0-1-0.68-1-1.5 0-0.83 0.68-1.73 1.5-2 0.82-0.28 1.5-0.95 1.5-1.5 0-0.55-0.53-0.66-1.18-0.25-0.85 0.53-1 0.1-0.55-1.5 0.35-1.24 0.55-2.21 0.44-2.17-0.12 0.04-0.77 0.27-1.46 0.5z"/>
		<path id="Path 27" class="s3" d="m279.26 161.35l-5.24 2.15c-0.01 10.99 0.54 13.93 1.79 16 0.99 1.65 3.46 4.01 5.49 5.25 3 1.82 4.22 2.06 6.45 1.26 1.51-0.54 3.98-2.23 5.48-3.75 1.5-1.52 3.19-4.33 3.75-6.26 0.56-1.93 1.02-5.53 1.01-8l-0.02-4.5c-8.11-2.77-11.15-3.74-11.97-3.94-0.82-0.2-3.86 0.61-6.74 1.79z"/>
		<path id="Path 28" class="s16" d="m586 134l-7.5 0.64c11.29 0.28 14.71-0.08 14.96-0.64 0.26-0.55 0.37-0.92 0.25-0.82-0.11 0.1-3.59 0.47-7.71 0.82z"/>
	</g>
</svg>